{
  "accessors": [
    {
      "name": "trees3_1_positions",
      "componentType": 5126,
      "count": 18000,
      "min": [
        -13.844123840332031,
        -0.00812000036239624,
        -18.01355743408203
      ],
      "max": [
        12.235835075378418,
        0.767536997795105,
        13.302316665649414
      ],
      "type": "VEC3",
      "bufferView": 0,
      "byteOffset": 0
    },
    {
      "name": "trees3_1_normals",
      "componentType": 5126,
      "count": 18000,
      "min": [
        -1,
        -1,
        -1
      ],
      "max": [
        1,
        1,
        1
      ],
      "type": "VEC3",
      "bufferView": 0,
      "byteOffset": 216000
    },
    {
      "name": "trees3_1_texcoords",
      "componentType": 5126,
      "count": 18000,
      "min": [
        0,
        0
      ],
      "max": [
        1,
        1
      ],
      "type": "VEC2",
      "bufferView": 1,
      "byteOffset": 0
    },
    {
      "name": "trees3_1_0_indices",
      "componentType": 5123,
      "count": 27000,
      "min": [
        0
      ],
      "max": [
        17999
      ],
      "type": "SCALAR",
      "bufferView": 2,
      "byteOffset": 0
    }
  ],
  "asset": {
    "generator": "obj2gltf",
    "version": "2.0"
  },
  "buffers": [
    {
      "name": "TreeM",
      "byteLength": 1347012,
      "uri": "data:application/octet-stream;base64,"
    }
  ],
  "bufferViews": [
    {
      "name": "bufferView_0",
      "buffer": 0,
      "byteLength": 432000,
      "byteOffset": 0,
      "byteStride": 12,
      "target": 34962
    },
    {
      "name": "bufferView_1",
      "buffer": 0,
      "byteLength": 144000,
      "byteOffset": 432000,
      "byteStride": 8,
      "target": 34962
    },
    {
      "name": "bufferView_2",
      "buffer": 0,
      "byteLength": 54000,
      "byteOffset": 576000,
      "target": 34963
    },
    {
      "buffer": 0,
      "byteOffset": 630000,
      "byteLength": 717012
    }
  ],
  "images": [
    {
      "name": "zhiwu",
      "mimeType": "image/png",
      "bufferView": 3
    }
  ],
  "materials": [
    {
      "name": "Z_1_:lambert2SG",
      "pbrMetallicRoughness": {
        "baseColorTexture": {
          "index": 0
        },
        "baseColorFactor": [
          1,
          1,
          1,
          1
        ],
        "metallicFactor": 0,
        "roughnessFactor": 1
      },
      "emissiveFactor": [
        0,
        0,
        0
      ],
      "alphaMode": "BLEND",
      "doubleSided": false
    }
  ],
  "meshes": [
    {
      "name": "trees3_1",
      "primitives": [
        {
          "attributes": {
            "POSITION": 0,
            "NORMAL": 1,
            "TEXCOORD_0": 2
          },
          "indices": 3,
          "material": 0,
          "mode": 4
        }
      ]
    }
  ],
  "nodes": [
    {
      "name": "trees3",
      "mesh": 0
    }
  ],
  "samplers": [
    {
      "magFilter": 9729,
      "minFilter": 9986,
      "wrapS": 10497,
      "wrapT": 10497
    }
  ],
  "scene": 0,
  "scenes": [
    {
      "nodes": [
        0
      ]
    }
  ],
  "textures": [
    {
      "name": "zhiwu",
      "sampler": 0,
      "source": 0
    }
  ]
}
